<svg width="605" height="151" viewBox="0 0 605 151" fill="none" xmlns="http://www.w3.org/2000/svg">
<rect width="150.229" height="150.229" fill="url(#paint0_radial_497_576)"/>
<path fill-rule="evenodd" clip-rule="evenodd" d="M78.2128 34.1771C78.2128 54.8156 95.1314 71.7343 115.77 71.7343L150.323 71.7343V78.119L115.77 78.119C95.1314 78.119 78.2128 95.0377 78.2128 115.676L78.2128 150.229H71.828L71.828 115.676C71.828 95.0377 54.9094 78.119 34.2708 78.119H0L0 71.7343H34.2708C54.9094 71.7343 71.828 54.8156 71.828 34.1771V0L78.2128 0V34.1771Z" fill="white"/>
<path d="M217.369 78.6088C222.891 78.6088 227.543 78.1549 231.325 77.2472C235.183 76.2638 238.096 74.5617 240.062 72.1411C242.105 69.6447 243.126 66.1272 243.126 61.5884C243.126 57.0497 242.105 53.57 240.062 51.1493C238.096 48.7286 235.183 47.0644 231.325 46.1567C227.543 45.2489 222.891 44.795 217.369 44.795H198.419V37.3061H217.369C224.631 37.3061 230.834 38.0625 235.978 39.5755C241.197 41.0884 245.169 43.6225 247.892 47.1779C250.615 50.6576 251.977 55.4611 251.977 61.5884C251.977 67.6401 250.615 72.4815 247.892 76.1125C245.169 79.6678 241.235 82.202 236.091 83.7149C235.562 83.9418 235.032 84.0931 234.502 84.1688L250.275 116.734H240.63L226.446 85.6439C223.647 85.9465 220.621 86.0977 217.369 86.0977H198.419V116.734H189.909V44.795H198.419V78.6088H217.369ZM267.276 87.7998V80.3108H258.653C259.334 74.5617 261.073 69.5313 263.872 65.2194C266.671 60.832 270.378 57.4279 274.992 55.0072C279.607 52.5866 284.902 51.3762 290.878 51.3762C295.19 51.3762 299.199 52.2083 302.906 53.8725C306.612 55.4611 309.789 57.844 312.437 61.0211C315.16 64.1226 317.165 67.9427 318.451 72.4815C319.813 76.9446 320.304 82.0507 319.926 87.7998H267.276ZM267.276 80.3108H312.097C311.794 76.9824 311 73.9566 309.714 71.2333C307.974 67.451 305.515 64.5008 302.338 62.3827C299.161 60.189 295.341 59.0921 290.878 59.0921C284.145 59.0921 278.737 61.0589 274.652 64.9925C270.567 68.9261 268.108 74.0322 267.276 80.3108ZM290.878 118.55C284.675 118.55 279.191 117.264 274.425 114.692C269.735 112.044 265.99 108.413 263.191 103.799C260.468 99.1845 258.918 93.8515 258.539 87.7998H267.276C267.806 94.6079 270.075 100.168 274.085 104.48C278.169 108.716 283.767 110.834 290.878 110.834C296.703 110.834 301.204 109.472 304.381 106.749C307.558 103.95 309.752 100.584 310.962 96.6504H319.699C318.64 101.038 316.825 104.858 314.253 108.111C311.681 111.364 308.428 113.935 304.494 115.827C300.561 117.642 296.022 118.55 290.878 118.55ZM360.385 118.55C354.484 118.55 349.643 117.188 345.861 114.465C342.305 111.969 339.582 108.64 337.691 104.48V116.734H329.408V31.6326H337.691V65.6733C339.733 61.2102 342.646 57.7305 346.428 55.2342C350.21 52.6622 354.863 51.3762 360.385 51.3762C366.058 51.3762 371.013 52.8135 375.249 55.688C379.561 58.5626 382.927 62.534 385.348 67.6023C387.769 72.6706 388.979 78.4953 388.979 85.0765C388.979 91.5821 387.769 97.369 385.348 102.437C382.927 107.506 379.561 111.477 375.249 114.352C371.013 117.15 366.058 118.55 360.385 118.55ZM359.817 110.834C363.902 110.834 367.458 109.813 370.484 107.77C373.585 105.728 376.006 102.778 377.746 98.9197C379.485 95.0618 380.355 90.4474 380.355 85.0765C380.355 79.63 379.485 74.9778 377.746 71.1198C376.006 67.1862 373.585 64.1982 370.484 62.1558C367.458 60.1133 363.902 59.0921 359.817 59.0921C354.976 59.0921 350.891 60.2268 347.563 62.4962C344.31 64.6899 341.852 67.7536 340.187 71.6872C338.523 75.5451 337.691 80.0082 337.691 85.0765C337.691 90.0692 338.523 94.5323 340.187 98.4659C341.852 102.324 344.31 105.35 347.563 107.543C350.891 109.737 354.976 110.834 359.817 110.834ZM398.442 31.6326H406.725V116.734H398.442V31.6326ZM469.787 116.734H461.503V105.501C460.671 107.392 459.574 109.17 458.213 110.834C456.322 113.103 453.863 114.957 450.837 116.394C447.887 117.831 444.18 118.55 439.717 118.55C435.632 118.55 431.964 117.718 428.711 116.054C425.458 114.389 422.848 111.628 420.881 107.77C418.99 103.912 418.045 98.7684 418.045 92.3385V53.1917H426.328V90.8634C426.328 95.2509 426.82 98.9576 427.803 101.983C428.862 105.009 430.489 107.316 432.682 108.905C434.876 110.494 437.788 111.288 441.419 111.288C445.202 111.288 448.606 110.191 451.632 107.997C454.657 105.728 457.04 102.664 458.78 98.8063C460.596 94.8727 461.503 90.4096 461.503 85.4169V53.1917H469.787V116.734ZM487.898 87.7998V80.3108H479.275C479.955 74.5617 481.695 69.5313 484.494 65.2194C487.293 60.832 491 57.4279 495.614 55.0072C500.229 52.5866 505.524 51.3762 511.5 51.3762C515.812 51.3762 519.821 52.2083 523.528 53.8725C527.234 55.4611 530.411 57.844 533.059 61.0211C535.782 64.1226 537.787 67.9427 539.073 72.4815C540.434 76.9446 540.926 82.0507 540.548 87.7998H487.898ZM487.898 80.3108H532.718C532.416 76.9824 531.622 73.9566 530.336 71.2333C528.596 67.451 526.137 64.5008 522.96 62.3827C519.783 60.189 515.963 59.0921 511.5 59.0921C504.767 59.0921 499.359 61.0589 495.274 64.9925C491.189 68.9261 488.73 74.0322 487.898 80.3108ZM511.5 118.55C505.297 118.55 499.812 117.264 495.047 114.692C490.357 112.044 486.612 108.413 483.813 103.799C481.09 99.1845 479.539 93.8515 479.161 87.7998H487.898C488.428 94.6079 490.697 100.168 494.706 104.48C498.791 108.716 504.389 110.834 511.5 110.834C517.325 110.834 521.825 109.472 525.003 106.749C528.18 103.95 530.373 100.584 531.584 96.6504H540.321C539.262 101.038 537.446 104.858 534.874 108.111C532.302 111.364 529.05 113.935 525.116 115.827C521.182 117.642 516.644 118.55 511.5 118.55ZM556.025 96.6504C556.403 101.34 558.37 105.009 561.925 107.657C565.556 110.229 569.982 111.515 575.201 111.515C580.345 111.515 584.43 110.494 587.456 108.451C590.482 106.409 591.995 103.345 591.995 99.2601C591.995 96.9151 591.2 95.0996 589.612 93.8136C588.099 92.5277 586.056 91.5443 583.484 90.8634C580.912 90.1826 578.113 89.6153 575.088 89.1614C572.062 88.7075 568.998 88.178 565.897 87.5728C562.871 86.892 560.072 85.9465 557.5 84.7361C554.928 83.4501 552.848 81.7103 551.259 79.5165C549.746 77.2472 548.99 74.297 548.99 70.666C548.99 67.2619 550.011 64.0848 552.053 61.1346C554.096 58.1844 557.008 55.8393 560.791 54.0995C564.648 52.284 569.149 51.3762 574.293 51.3762C578.908 51.3762 583.068 52.3218 586.775 54.213C590.557 56.0285 593.545 58.5626 595.739 61.8154C598.008 65.0682 599.143 68.8505 599.143 73.1623H591.995C591.692 68.4722 589.801 64.8412 586.321 62.2693C582.917 59.6973 578.756 58.4113 573.839 58.4113C568.317 58.4113 564.157 59.5838 561.358 61.9288C558.559 64.1982 557.16 67.1106 557.16 70.666C557.16 73.1623 557.916 75.0912 559.429 76.4529C561.017 77.8145 563.098 78.8735 565.67 79.63C568.242 80.3108 571.041 80.8782 574.066 81.332C577.168 81.7859 580.232 82.3533 583.257 83.0341C586.283 83.6392 589.082 84.547 591.654 85.7573C594.226 86.892 596.269 88.5562 597.781 90.75C599.37 92.8681 600.164 95.7048 600.164 99.2601C600.164 103.269 599.143 106.711 597.101 109.586C595.058 112.46 592.146 114.692 588.364 116.28C584.581 117.793 580.005 118.55 574.634 118.55C569.641 118.55 565.178 117.604 561.244 115.713C557.311 113.746 554.172 111.137 551.826 107.884C549.557 104.555 548.347 100.811 548.195 96.6504H556.025Z" fill="black"/>
<defs>
<radialGradient id="paint0_radial_497_576" cx="0" cy="0" r="1" gradientUnits="userSpaceOnUse" gradientTransform="translate(75.1144 75.1144) rotate(90) scale(75.1144)">
<stop stop-color="white"/>
<stop offset="1" stop-color="#FE6B00"/>
</radialGradient>
</defs>
</svg>
